<svg width="26" height="26" viewBox="0 0 26 26" fill="none" xmlns="http://www.w3.org/2000/svg">
<rect x="0.837524" y="0.571289" width="24.5538" height="24.5538" rx="12.2769" fill="#2DC071"/>
<g clip-path="url(#clip0_1579_2009)">
<path fill-rule="evenodd" clip-rule="evenodd" d="M19.4797 8.40094C19.5294 8.45051 19.5689 8.50941 19.5958 8.57425C19.6227 8.63909 19.6365 8.7086 19.6365 8.7788C19.6365 8.849 19.6227 8.91852 19.5958 8.98336C19.5689 9.0482 19.5294 9.10709 19.4797 9.15667L12.0078 16.6286C11.9583 16.6783 11.8994 16.7177 11.8345 16.7446C11.7697 16.7715 11.7002 16.7854 11.63 16.7854C11.5598 16.7854 11.4902 16.7715 11.4254 16.7446C11.3606 16.7177 11.3017 16.6783 11.2521 16.6286L7.51614 12.8926C7.41592 12.7924 7.35962 12.6565 7.35962 12.5148C7.35962 12.373 7.41592 12.2371 7.51614 12.1369C7.61635 12.0367 7.75227 11.9804 7.894 11.9804C8.03573 11.9804 8.17165 12.0367 8.27187 12.1369L11.63 15.4961L18.724 8.40094C18.7736 8.35124 18.8325 8.3118 18.8973 8.2849C18.9622 8.25799 19.0317 8.24414 19.1019 8.24414C19.1721 8.24414 19.2416 8.25799 19.3064 8.2849C19.3713 8.3118 19.4302 8.35124 19.4797 8.40094Z" fill="white"/>
</g>
<defs>
<clipPath id="clip0_1579_2009">
<rect width="12.2769" height="8.44039" fill="white" transform="translate(6.97595 8.24438)"/>
</clipPath>
</defs>
</svg>
