<svg width="0" height="0" class="hidden">
  <symbol fill="none" xmlns="http://www.w3.org/2000/svg" viewBox="0 0 19 15" id="youtube">
    <g clip-path="url(#clip0_1579_2244)">
      <path d="M18.5836 2.67694C18.479 2.268 18.274 1.89513 17.9892 1.59567C17.7044 1.29621 17.3498 1.08066 16.9609 0.970581C15.5286 0.562988 9.77339 0.562988 9.77339 0.562988C9.77339 0.562988 4.01814 0.562988 2.5859 0.970581C2.19699 1.08066 1.84239 1.29621 1.5576 1.59567C1.27281 1.89513 1.06781 2.268 0.963131 2.67694C0.6957 4.21285 0.565923 5.77176 0.575507 7.33317C0.565923 8.89458 0.6957 10.4535 0.963131 11.9894C1.06781 12.3983 1.27281 12.7712 1.5576 13.0707C1.84239 13.3701 2.19699 13.5857 2.5859 13.6958C4.01814 14.1033 9.77339 14.1033 9.77339 14.1033C9.77339 14.1033 15.5286 14.1033 16.9609 13.6958C17.3498 13.5857 17.7044 13.3701 17.9892 13.0707C18.274 12.7712 18.479 12.3983 18.5836 11.9894C18.8511 10.4535 18.9808 8.89458 18.9713 7.33317C18.9808 5.77176 18.8511 4.21285 18.5836 2.67694ZM7.93381 10.2347V4.43166L12.7101 7.33317L7.93381 10.2347Z" fill="#E42F08"></path>
    </g>
    <defs>
      <clipPath id="clip0_1579_2244">
        <rect width="18.4154" height="13.5692" fill="white" transform="translate(0.575012 0.547852)"></rect>
      </clipPath>
    </defs>
  </symbol>
  <symbol fill="none" xmlns="http://www.w3.org/2000/svg" viewBox="0 0 20 16" id="twitter">
    <path d="M19.2292 2.55149C18.5527 2.84762 17.8165 3.06074 17.0582 3.14375C17.8455 2.66912 18.435 1.91928 18.7163 1.03493C17.9775 1.4809 17.1682 1.79362 16.3243 1.95922C15.9715 1.57655 15.5449 1.2717 15.071 1.06366C14.5971 0.855619 14.086 0.748852 13.5697 0.750009C11.4806 0.750009 9.8004 2.46848 9.8004 4.5773C9.8004 4.87344 9.83577 5.16957 9.89325 5.45449C6.76507 5.28847 3.97513 3.77191 2.12032 1.44996C1.78236 2.03575 1.60525 2.70275 1.60743 3.38155C1.60743 4.70967 2.27286 5.88074 3.28759 6.56947C2.6896 6.54557 2.10561 6.37878 1.58312 6.08265V6.12976C1.58312 7.98956 2.8786 9.5308 4.60518 9.88527C4.281 9.97072 3.94751 10.0144 3.61257 10.0154C3.36718 10.0154 3.13505 9.99071 2.90071 9.95706C3.37823 11.4736 4.76878 12.5751 6.42461 12.611C5.12913 13.6408 3.50645 14.2465 1.7445 14.2465C1.42837 14.2465 1.13655 14.2353 0.833679 14.1994C2.50499 15.2874 4.48801 15.9156 6.62358 15.9156C13.5564 15.9156 17.35 10.0872 17.35 5.02823C17.35 4.86222 17.35 4.69621 17.339 4.53019C18.0729 3.98504 18.7163 3.30977 19.2292 2.55149Z" fill="#21A6DF"></path>
  </symbol>
  <symbol fill="none" xmlns="http://www.w3.org/2000/svg" viewBox="0 0 19 19" id="insta">
    <path d="M9.261 4.61206C6.64831 4.61206 4.53975 6.72062 4.53975 9.33331C4.53975 11.946 6.64831 14.0546 9.261 14.0546C11.8737 14.0546 13.9822 11.946 13.9822 9.33331C13.9822 6.72062 11.8737 4.61206 9.261 4.61206ZM9.261 12.4018C7.57139 12.4018 6.19253 11.0229 6.19253 9.33331C6.19253 7.6437 7.57139 6.26484 9.261 6.26484C10.9506 6.26484 12.3295 7.6437 12.3295 9.33331C12.3295 11.0229 10.9506 12.4018 9.261 12.4018ZM14.1756 3.31838C13.5656 3.31838 13.073 3.81099 13.073 4.421C13.073 5.03101 13.5656 5.52362 14.1756 5.52362C14.7856 5.52362 15.2782 5.03331 15.2782 4.421C15.2784 4.27615 15.25 4.13269 15.1947 3.99883C15.1393 3.86498 15.0581 3.74335 14.9557 3.64093C14.8533 3.5385 14.7316 3.45729 14.5978 3.40194C14.4639 3.3466 14.3205 3.3182 14.1756 3.31838ZM18.4641 9.33331C18.4641 8.06264 18.4756 6.80349 18.4042 5.53513C18.3329 4.0619 17.9968 2.75441 16.9195 1.67711C15.8399 0.597509 14.5347 0.26373 13.0615 0.192371C11.7908 0.121011 10.5317 0.132521 9.2633 0.132521C7.99264 0.132521 6.73349 0.121011 5.46513 0.192371C3.9919 0.26373 2.6844 0.599811 1.6071 1.67711C0.527502 2.75671 0.193723 4.0619 0.122363 5.53513C0.0510037 6.8058 0.0625133 8.06495 0.0625133 9.33331C0.0625133 10.6017 0.0510037 11.8631 0.122363 13.1315C0.193723 14.6047 0.529804 15.9122 1.6071 16.9895C2.68671 18.0691 3.9919 18.4029 5.46513 18.4742C6.73579 18.5456 7.99494 18.5341 9.2633 18.5341C10.534 18.5341 11.7931 18.5456 13.0615 18.4742C14.5347 18.4029 15.8422 18.0668 16.9195 16.9895C17.9991 15.9099 18.3329 14.6047 18.4042 13.1315C18.4779 11.8631 18.4641 10.604 18.4641 9.33331ZM16.4384 14.7612C16.2704 15.1802 16.0678 15.4933 15.7432 15.8155C15.4186 16.1401 15.1079 16.3427 14.6889 16.5107C13.4781 16.9918 10.603 16.8836 9.261 16.8836C7.91898 16.8836 5.04157 16.9918 3.83076 16.513C3.41181 16.345 3.09875 16.1424 2.77648 15.8178C2.45191 15.4933 2.24934 15.1825 2.0813 14.7635C1.6025 13.5504 1.71069 10.6753 1.71069 9.33331C1.71069 7.99129 1.6025 5.11388 2.0813 3.90307C2.24934 3.48412 2.45191 3.17106 2.77648 2.84879C3.10105 2.52652 3.41181 2.32165 3.83076 2.15361C5.04157 1.67481 7.91898 1.783 9.261 1.783C10.603 1.783 13.4804 1.67481 14.6912 2.15361C15.1102 2.32165 15.4232 2.52422 15.7455 2.84879C16.0701 3.17336 16.2727 3.48412 16.4407 3.90307C16.9195 5.11388 16.8113 7.99129 16.8113 9.33331C16.8113 10.6753 16.9195 13.5504 16.4384 14.7612Z" fill="#E61F5A"></path>
  </symbol>
  <symbol fill="none" xmlns="http://www.w3.org/2000/svg" viewBox="0 0 19 19" id="facebook">
    <g clip-path="url(#clip0_1579_2238)">
      <path d="M17.9692 0.125H1.02702C0.61958 0.125 0.290405 0.454175 0.290405 0.861615V17.8038C0.290405 18.2112 0.61958 18.5404 1.02702 18.5404H17.9692C18.3766 18.5404 18.7058 18.2112 18.7058 17.8038V0.861615C18.7058 0.454175 18.3766 0.125 17.9692 0.125ZM15.8422 5.49999H14.3713C13.218 5.49999 12.9947 6.04785 12.9947 6.85352V8.6283H15.7478L15.3887 11.4067H12.9947V18.5404H10.1242V11.409H7.72331V8.6283H10.1242V6.57959C10.1242 4.20171 11.5767 2.90572 13.6991 2.90572C14.7166 2.90572 15.589 2.98169 15.8445 3.01622V5.49999H15.8422Z" fill="#335BF5"></path>
    </g>
    <defs>
      <clipPath id="clip0_1579_2238">
        <rect width="18.4154" height="18.4154" fill="white" transform="translate(0.290405 0.125)"></rect>
      </clipPath>
    </defs>
  </symbol>
  <symbol fill="none" xmlns="http://www.w3.org/2000/svg" viewBox="0 0 24 23" id="arro">
    <g clip-path="url(#clip0_1579_2225)" filter="url(#filter0_d_1579_2225)">
      <path d="M18.9487 1.99412C18.8451 1.88693 18.7143 1.81271 18.5715 1.7802C18.4288 1.74769 18.2801 1.75823 18.143 1.81058L1.26221 8.19458C1.11663 8.25201 0.991292 8.35414 0.902845 8.48741C0.814398 8.62068 0.767029 8.77878 0.767029 8.94071C0.767029 9.10264 0.814398 9.26074 0.902845 9.39401C0.991292 9.52728 1.11663 9.62942 1.26221 9.68684L8.62837 12.7512L11.5748 20.412C11.6302 20.5567 11.7251 20.6815 11.8478 20.7708C11.9705 20.8601 12.1157 20.9102 12.2654 20.9147C12.4205 20.9114 12.5709 20.8593 12.6969 20.7653C12.823 20.6713 12.9186 20.5397 12.9713 20.388L19.1098 2.83202C19.1621 2.69084 19.1747 2.53711 19.1461 2.38875C19.1176 2.2404 19.0491 2.10354 18.9487 1.99412ZM12.2654 17.8823L10.1246 12.2963L13.8 8.47388L12.7181 7.3487L9.01202 11.203L3.67156 8.9447L17.1225 3.89336L12.2654 17.8823Z" fill="#23A6F0"></path>
    </g>
    <defs>
      <filter id="filter0_d_1579_2225" x="-3.2442" y="0.964355" width="26.4154" height="27.9502" filterUnits="userSpaceOnUse" color-interpolation-filters="sRGB">
        <feFlood flood-opacity="0" result="BackgroundImageFix"></feFlood>
        <feColorMatrix in="SourceAlpha" type="matrix" values="0 0 0 0 0 0 0 0 0 0 0 0 0 0 0 0 0 0 127 0" result="hardAlpha"></feColorMatrix>
        <feOffset dy="4"></feOffset>
        <feGaussianBlur stdDeviation="2"></feGaussianBlur>
        <feComposite in2="hardAlpha" operator="out"></feComposite>
        <feColorMatrix type="matrix" values="0 0 0 0 0 0 0 0 0 0 0 0 0 0 0 0 0 0 0.25 0"></feColorMatrix>
        <feBlend mode="normal" in2="BackgroundImageFix" result="effect1_dropShadow_1579_2225"></feBlend>
        <feBlend mode="normal" in="SourceGraphic" in2="effect1_dropShadow_1579_2225" result="shape"></feBlend>
      </filter>
      <clipPath id="clip0_1579_2225">
        <rect width="18.4154" height="19.95" fill="white" transform="translate(0.755798 0.964355)"></rect>
      </clipPath>
    </defs>
  </symbol>
  <symbol fill="none" xmlns="http://www.w3.org/2000/svg" viewBox="0 0 19 16" id="mail">
    <path fill-rule="evenodd" clip-rule="evenodd" d="M-0.618412 2.25399C-0.492704 1.68905 -0.183682 1.18463 0.258044 0.823352C0.699769 0.462072 1.24802 0.265342 1.81299 0.265381H16.7755C17.3405 0.265342 17.8887 0.462072 18.3304 0.823352C18.7722 1.18463 19.0812 1.68905 19.2069 2.25399L9.29424 8.4679L-0.618412 2.25399ZM-0.680756 3.71443V12.7994L6.55486 8.24922L-0.680756 3.71443ZM7.74937 8.9999L-0.442602 14.1498C-0.240202 14.5875 0.079248 14.9573 0.478566 15.2161C0.877884 15.4749 1.34065 15.612 1.81299 15.6115H16.7755C17.2478 15.6116 17.7104 15.4742 18.1094 15.2152C18.5085 14.9562 18.8277 14.5863 19.0298 14.1485L10.8379 8.99862L9.29424 9.96671L7.74937 8.99862V8.9999ZM12.0336 8.2505L19.2692 12.7994V3.71443L12.0336 8.24922V8.2505Z" fill="#23A6F0"></path>
  </symbol>
  <symbol fill="none" xmlns="http://www.w3.org/2000/svg" viewBox="0 0 19 24" id="pin">
    <g clip-path="url(#clip0_1579_2686)">
      <path d="M9.29422 14.7399C11.8332 14.7399 13.898 12.6751 13.898 10.1361C13.898 7.59708 11.8332 5.53228 9.29422 5.53228C6.75523 5.53228 4.69043 7.59708 4.69043 10.1361C4.69043 12.6751 6.75523 14.7399 9.29422 14.7399ZM9.29422 7.83418C10.5637 7.83418 11.5961 8.86658 11.5961 10.1361C11.5961 11.4056 10.5637 12.438 9.29422 12.438C8.02472 12.438 6.99232 11.4056 6.99232 10.1361C6.99232 8.86658 8.02472 7.83418 9.29422 7.83418Z" fill="#23A6F0"></path>
      <path d="M8.62669 23.7334C8.82148 23.8725 9.05487 23.9473 9.29424 23.9473C9.53361 23.9473 9.767 23.8725 9.96179 23.7334C10.3117 23.4859 18.5352 17.5482 18.5018 10.1361C18.5018 5.05922 14.3711 0.928467 9.29424 0.928467C4.2174 0.928467 0.0866492 5.05922 0.0866492 10.1303C0.0532717 17.5482 8.2768 23.4859 8.62669 23.7334ZM9.29424 3.23037C13.1027 3.23037 16.1999 6.32757 16.1999 10.1418C16.2241 15.2497 11.1496 19.8363 9.29424 21.3406C7.44006 19.8351 2.36438 15.2474 2.38855 10.1361C2.38855 6.32757 5.48575 3.23037 9.29424 3.23037Z" fill="#23A6F0"></path>
    </g>
    <defs>
      <clipPath id="clip0_1579_2686">
        <rect width="18.4154" height="23.019" fill="white" transform="translate(0.0865479 0.928467)"></rect>
      </clipPath>
    </defs>
  </symbol>
  <symbol fill="none" xmlns="http://www.w3.org/2000/svg" viewBox="0 0 18 19" id="call">
    <path d="M13.5489 10.3033C13.4635 10.2177 13.362 10.1498 13.2503 10.1035C13.1386 10.0571 13.0189 10.0333 12.8979 10.0333C12.777 10.0333 12.6573 10.0571 12.5456 10.1035C12.4339 10.1498 12.3324 10.2177 12.247 10.3033L10.7793 11.7709C10.0988 11.5684 8.82911 11.108 8.02436 10.3033C7.21962 9.49851 6.75924 8.22878 6.55667 7.54834L8.02436 6.08065C8.10994 5.99521 8.17784 5.89374 8.22416 5.78204C8.27049 5.67034 8.29433 5.5506 8.29433 5.42967C8.29433 5.30874 8.27049 5.189 8.22416 5.0773C8.17784 4.9656 8.10994 4.86413 8.02436 4.77869L4.34132 1.09565C4.25589 1.01007 4.15442 0.942176 4.04271 0.895852C3.93101 0.849528 3.81127 0.825684 3.69035 0.825684C3.56942 0.825684 3.44968 0.849528 3.33798 0.895852C3.22628 0.942176 3.1248 1.01007 3.03937 1.09565L0.542267 3.59275C0.192379 3.94264 -0.00466425 4.42328 0.00270183 4.91404C0.0238793 6.22521 0.371006 10.7793 3.96013 14.3684C7.54925 17.9575 12.1033 18.3037 13.4154 18.3258H13.4412C13.9274 18.3258 14.3868 18.1343 14.7349 17.7863L17.232 15.2892C17.3175 15.2037 17.3854 15.1023 17.4318 14.9906C17.4781 14.8789 17.5019 14.7591 17.5019 14.6382C17.5019 14.5173 17.4781 14.3975 17.4318 14.2858C17.3854 14.1741 17.3175 14.0726 17.232 13.9872L13.5489 10.3033ZM13.432 16.4834C12.2829 16.4641 8.35123 16.1556 5.26208 13.0655C2.1628 9.96625 1.86264 6.0208 1.84422 4.89471L3.69035 3.04858L6.07143 5.42967L4.88089 6.62021C4.77266 6.72835 4.69309 6.86176 4.64937 7.00837C4.60564 7.15499 4.59913 7.31019 4.63044 7.45994C4.65254 7.56583 5.19303 10.0767 6.72149 11.6052C8.24995 13.1337 10.7609 13.6742 10.8667 13.6963C11.0164 13.7284 11.1718 13.7225 11.3185 13.6789C11.4653 13.6352 11.5987 13.5554 11.7065 13.4467L12.8979 12.2562L15.279 14.6373L13.432 16.4834Z" fill="#23A6F0"></path>
  </symbol>
  <symbol fill="none" xmlns="http://www.w3.org/2000/svg" viewBox="0 0 114 56" id="reddit">
    <g clip-path="url(#clip0_1579_2440)">
      <g clip-path="url(#clip1_1579_2440)" filter="url(#filter0_d_1579_2440)">
        <path d="M81.0144 21.6181C79.1767 21.6181 77.5596 22.381 76.3712 23.5745C71.9976 20.5354 66.1048 18.579 59.5749 18.3698L62.9685 3.01409L73.774 5.45033C73.774 8.10806 75.9302 10.2736 78.5764 10.2736C81.2717 10.2736 83.4401 8.04653 83.4401 5.38881C83.4401 2.73109 81.2839 0.504021 78.5764 0.504021C76.6897 0.504021 75.0603 1.64832 74.2518 3.21096L62.3192 0.553238C61.7189 0.393283 61.1308 0.823932 60.9715 1.42684L57.2472 18.3575C50.7663 18.6282 44.9348 20.5846 40.5489 23.6237C39.3605 22.381 37.6821 21.6181 35.8445 21.6181C29.0328 21.6181 26.8031 30.7971 33.039 33.9347C32.8184 34.9067 32.7204 35.9403 32.7204 36.9739C32.7204 47.2848 44.2855 55.6394 58.4846 55.6394C72.7449 55.6394 84.3099 47.2848 84.3099 36.9739C84.3099 35.9403 84.1997 34.8575 83.9302 33.8855C90.0435 30.7356 87.7893 21.6181 81.0144 21.6181ZM42.9256 34.5868C42.9256 31.8799 45.0818 29.702 47.7893 29.702C50.4356 29.702 52.5918 31.8676 52.5918 34.5868C52.5918 37.2446 50.4356 39.4101 47.7893 39.4101C45.0941 39.4224 42.9256 37.2446 42.9256 34.5868ZM69.1798 46.0913C64.7204 50.5701 52.1385 50.5701 47.6791 46.0913C47.189 45.6607 47.189 44.8978 47.6791 44.4056C48.1078 43.975 48.8674 43.975 49.2962 44.4056C52.702 47.9123 63.9976 47.9739 67.5504 44.4056C67.9792 43.975 68.7388 43.975 69.1675 44.4056C69.6698 44.8978 69.6698 45.6607 69.1798 46.0913ZM69.0818 39.4224C66.4355 39.4224 64.2793 37.2569 64.2793 34.5991C64.2793 31.8922 66.4355 29.7143 69.0818 29.7143C71.777 29.7143 73.9455 31.8799 73.9455 34.5991C73.9332 37.2446 71.777 39.4224 69.0818 39.4224Z" fill="#737373"></path>
      </g>
    </g>
    <defs>
      <filter id="filter0_d_1579_2440" x="25.2779" y="0.393296" width="66.3154" height="63.2462" filterUnits="userSpaceOnUse" color-interpolation-filters="sRGB">
        <feFlood flood-opacity="0" result="BackgroundImageFix"></feFlood>
        <feColorMatrix in="SourceAlpha" type="matrix" values="0 0 0 0 0 0 0 0 0 0 0 0 0 0 0 0 0 0 127 0" result="hardAlpha"></feColorMatrix>
        <feOffset dy="4"></feOffset>
        <feGaussianBlur stdDeviation="2"></feGaussianBlur>
        <feComposite in2="hardAlpha" operator="out"></feComposite>
        <feColorMatrix type="matrix" values="0 0 0 0 0 0 0 0 0 0 0 0 0 0 0 0 0 0 0.25 0"></feColorMatrix>
        <feBlend mode="normal" in2="BackgroundImageFix" result="effect1_dropShadow_1579_2440"></feBlend>
        <feBlend mode="normal" in="SourceGraphic" in2="effect1_dropShadow_1579_2440" result="shape"></feBlend>
      </filter>
      <clipPath id="clip0_1579_2440">
        <rect width="115.863" height="55.2462" fill="white" transform="translate(0.503845 0.393284)"></rect>
      </clipPath>
      <clipPath id="clip1_1579_2440">
        <rect width="58.3154" height="55.2462" fill="white" transform="translate(29.2779 0.393296)"></rect>
      </clipPath>
    </defs>
  </symbol>
  <symbol fill="none" xmlns="http://www.w3.org/2000/svg" viewBox="0 0 117 48" id="aws">
    <g clip-path="url(#clip0_1579_2437)">
      <g clip-path="url(#clip1_1579_2437)">
        <path d="M41.2019 17.4856C41.1124 20.2771 42.5194 21.5133 42.5542 22.2983C42.5377 22.4581 42.4827 22.6117 42.3941 22.7461C42.3054 22.8805 42.1856 22.992 42.0446 23.0711L40.4536 24.1754C40.2477 24.3185 40.005 24.4006 39.7538 24.412C39.7003 24.4096 38.7358 24.6376 37.2081 21.2557C36.2761 22.4092 35.0903 23.336 33.7414 23.9651C32.3924 24.5942 30.9162 24.909 29.4258 24.8853C27.4022 24.995 21.9181 23.7465 22.2003 17.9576C22.0026 13.2397 26.4339 10.3089 31.0168 10.5567C31.8993 10.5591 33.7016 10.6023 36.8576 11.3294V9.40432C37.192 6.14322 35.0304 3.61298 31.2878 3.99257C30.9894 3.99381 28.8764 3.93095 25.5899 5.23859C24.6751 5.65517 24.5582 5.58615 24.2537 5.58615C23.3326 5.58615 23.7117 2.93882 23.8882 2.60359C24.5358 1.81481 28.3456 0.342019 32.0845 0.36297C34.5845 0.143749 37.071 0.908766 39.0067 2.49267C39.7936 3.36535 40.3939 4.38711 40.7714 5.49625C41.1489 6.60538 41.2957 7.77887 41.2031 8.94584L41.2019 17.4856ZM30.4599 21.4775C34.4909 21.4196 36.1976 19.0163 36.5866 17.7222C36.8924 16.4836 36.8414 15.6997 36.8414 14.3453C35.6395 14.0593 33.9092 13.7475 31.9242 13.7451C30.041 13.6046 26.6017 14.4389 26.7359 17.721C26.5818 19.7903 28.1181 21.5909 30.4599 21.4775ZM51.7051 24.3184C50.7281 24.4071 50.2732 23.7194 50.129 23.0403L43.9389 2.74779C43.8183 2.40516 43.7388 2.05144 43.7003 1.69033C43.6774 1.54146 43.7151 1.38968 43.8051 1.26835C43.8951 1.14703 44.0299 1.06608 44.1801 1.04329C44.2099 1.03836 43.9153 1.04329 46.9457 1.04329C48.0371 0.934833 48.3926 1.78647 48.5057 2.32135L52.9456 19.6781L57.0674 2.32135C57.1333 1.9245 57.4328 0.957018 58.6584 1.05931H60.7914C61.0611 1.03713 62.1723 0.997689 62.3675 2.33738L66.5216 19.916L71.1045 2.33738C71.1641 2.0687 71.4426 0.936066 72.6806 1.05931H75.1318C75.2374 1.04329 75.8962 0.959482 75.7843 2.11676C75.7309 2.34477 76.2082 0.80296 69.2276 23.0563C69.0846 23.7354 68.6284 24.4231 67.6514 24.3344H65.3283C63.9685 24.4761 63.7733 23.1438 63.7522 23.0095L59.6304 6.10871L55.5559 22.9922C55.536 23.1266 55.3409 24.4589 53.9798 24.3171H51.7051V24.3184ZM85.6984 25.0122C84.9676 25.0135 81.4822 24.9753 78.5686 23.4975C78.2784 23.3757 78.0312 23.1711 77.8584 22.9098C77.6855 22.6485 77.5949 22.3422 77.5979 22.0297V20.7048C77.5979 19.6633 78.3685 19.8544 78.6954 19.9789C79.9434 20.4792 80.7439 20.8588 82.2765 21.162C86.832 22.0901 88.8357 20.8786 89.3267 20.6099C90.9613 19.6473 91.0905 17.4449 89.9793 16.3024C88.6766 15.2191 88.0551 15.1784 83.3753 13.7142C82.7985 13.5553 77.9434 12.0369 77.9322 7.26107C77.8564 3.78059 81.0459 0.337088 86.5735 0.365435C88.1484 0.364202 92.3447 0.874443 93.4808 2.29054C93.6486 2.54813 93.7319 2.85131 93.7194 3.1582V4.40422C93.7194 4.95143 93.5181 5.22504 93.1141 5.22504C92.1558 5.11905 90.4554 3.84838 87.0036 3.90014C86.1471 3.85577 82.0453 4.01229 82.2292 6.9776C82.1758 9.31435 85.5368 10.1906 85.9209 10.2917C90.4529 11.6437 91.9681 11.868 93.7667 13.9373C95.8972 16.6795 94.7486 19.8901 94.3074 20.7701C91.9358 25.3906 85.8028 25.0147 85.6984 25.0122ZM90.6953 37.9358C81.9906 44.3101 69.3543 47.7031 58.5652 47.7031C44.0073 47.7983 29.9401 42.4907 19.1288 32.8236C18.3172 32.0977 19.0331 31.1031 20.0201 31.6564C32.013 38.4586 45.5915 42.0327 59.4079 42.0239C69.7257 41.9691 79.9308 39.8937 89.4373 35.9171C90.9016 35.3008 92.1433 36.8784 90.6953 37.9358ZM94.3235 33.833C93.2098 32.4132 86.9551 33.1699 84.1546 33.5014C83.3106 33.5963 83.1677 32.8704 83.9321 32.3343C88.9128 28.8624 97.0929 29.857 98.0326 31.0242C98.9711 32.1913 97.7778 40.3182 93.1153 44.2005C92.3994 44.8007 91.7145 44.4839 92.0327 43.6951C93.0818 41.0762 95.4373 35.254 94.3235 33.833Z" fill="#737373"></path>
      </g>
    </g>
    <defs>
      <clipPath id="clip0_1579_2437">
        <rect width="115.863" height="47.5731" fill="white" transform="translate(0.621155 0.229824)"></rect>
      </clipPath>
      <clipPath id="clip1_1579_2437">
        <rect width="79.8" height="47.5731" fill="white" transform="translate(18.6529 0.229827)"></rect>
      </clipPath>
    </defs>
  </symbol>
  <symbol fill="none" xmlns="http://www.w3.org/2000/svg" viewBox="0 0 117 34" id="stripe">
    <g clip-path="url(#clip0_1579_2434)">
      <g clip-path="url(#clip1_1579_2434)">
        <path d="M39.5301 3.42975L34.183 4.55281L34.1583 21.9358C34.1583 25.1463 36.6034 27.2215 39.8512 27.2215C41.6541 27.2215 42.9754 26.8919 43.704 26.5013V22.3753C43.0001 22.656 39.5424 23.657 39.5424 20.4588V12.7438H43.704V8.12951H39.5424L39.5301 3.42975ZM50.5329 9.72865L50.1995 8.12951H45.4575V26.8309H50.9281V14.2453C52.2247 12.5607 54.4105 12.8903 55.1143 13.11V8.12951C54.3734 7.87316 51.8172 7.39708 50.5329 9.72865ZM61.9309 0.902868L56.4233 2.06255V6.48154L61.9309 5.32186V0.902868ZM24.6991 13.6349C24.6991 12.7927 25.4153 12.4631 26.5638 12.4509C28.2309 12.4509 30.3549 12.9513 32.022 13.8425V8.73987C30.2067 8.03185 28.3914 7.75109 26.5761 7.75109C22.1305 7.75109 19.1668 10.046 19.1668 13.8791C19.1668 19.885 27.5023 18.9084 27.5023 21.4964C27.5023 22.4974 26.6255 22.8269 25.403 22.8269C23.5877 22.8269 21.2414 22.0823 19.4014 21.0935V25.9764C21.439 26.8431 23.5013 27.2093 25.3906 27.2093C29.9474 27.2093 33.084 25.2806 33.084 21.3743C33.084 14.9167 24.6991 16.0764 24.6991 13.6349ZM98.1872 17.6999C98.1872 12.1457 95.4704 7.7633 90.2592 7.7633C85.048 7.7633 81.8743 12.1457 81.8743 17.6633C81.8743 24.1941 85.616 27.2093 90.9507 27.2093C93.5687 27.2093 95.5322 26.6234 97.0264 25.8055V21.7283C95.5322 22.4729 93.8157 22.9246 91.6423 22.9246C89.5059 22.9246 87.6289 22.18 87.3819 19.6409H98.1131C98.1378 19.3601 98.1872 18.2248 98.1872 17.6999ZM87.3325 15.6491C87.3325 13.2077 88.8514 12.1823 90.2222 12.1823C91.5682 12.1823 93.0006 13.2077 93.0006 15.6491H87.3325ZM73.3907 7.7633C71.242 7.7633 69.8589 8.76429 69.0933 9.46009L68.8092 8.11731H63.9808V33.1176L69.4637 31.9701L69.4761 25.8421C70.2664 26.4158 71.4395 27.2093 73.3536 27.2093C77.2805 27.2093 80.8617 24.3773 80.8617 17.4924C80.8741 11.1935 77.2435 7.7633 73.3907 7.7633ZM72.0817 22.7171C70.7974 22.7171 70.0318 22.2532 69.5008 21.6917L69.4637 13.6349C70.0318 13.0124 70.8221 12.5607 72.0817 12.5607C74.0822 12.5607 75.4653 14.7824 75.4653 17.6145C75.4776 20.532 74.1192 22.7171 72.0817 22.7171ZM56.4357 26.8309H61.9433V8.12951H56.4357V26.8309Z" fill="#737373"></path>
      </g>
    </g>
    <defs>
      <clipPath id="clip0_1579_2434">
        <rect width="115.863" height="32.2269" fill="white" transform="translate(0.738464 0.902901)"></rect>
      </clipPath>
      <clipPath id="clip1_1579_2434">
        <rect width="79.0327" height="32.2269" fill="white" transform="translate(19.1538 0.902884)"></rect>
      </clipPath>
    </defs>
  </symbol>
  <symbol fill="none" xmlns="http://www.w3.org/2000/svg" viewBox="0 0 117 58" id="leaf">
    <g clip-path="url(#clip0_1579_2431)">
      <g clip-path="url(#clip1_1579_2431)">
        <path d="M97.5365 0.354143C87.6555 7.01629 86.6038 11.8513 85.7478 13.3304C84.9285 14.8468 84.317 20.8253 82.8985 23.7214C81.4677 26.6547 76.2704 28.9666 74.8151 29.9361C73.3843 30.9056 71.3543 34.6717 69.6912 37.9158C56.4717 37.3689 49.2199 42.7384 37.9937 49.5497C41.589 48.344 43.2888 47.474 43.2888 47.474C54.8085 42.9994 60.3238 38.9847 77.6645 41.3587C77.799 41.3587 77.8968 41.4333 78.0069 41.4581C78.4838 41.7316 78.655 42.3158 78.386 42.8005L71.7946 54.7079C71.4888 55.292 70.8407 55.6028 70.1926 55.4661C54.6862 52.5079 42.445 57.6163 31.1944 57.7779C22.2183 57.9146 19.2712 53.6141 19.2712 53.4152C19.2712 53.2785 19.3445 53.2039 19.4791 53.2039C19.4791 53.2039 24.1627 53.2039 32.0871 51.3022C41.0876 33.8638 49.1098 27.7609 57.8413 27.7609C57.8413 27.7609 66.6095 27.7609 68.9208 35.4547C71.709 30.5203 72.3816 29.3395 72.3816 29.3395C73.0297 28.1711 76.6617 19.744 82.9474 11.7643C89.2453 3.80951 94.0024 1.83324 97.5365 0.354143Z" fill="#737373"></path>
      </g>
    </g>
    <defs>
      <clipPath id="clip0_1579_2431">
        <rect width="116.631" height="57.5481" fill="white" transform="translate(0.0884705 0.242325)"></rect>
      </clipPath>
      <clipPath id="clip1_1579_2431">
        <rect width="78.2654" height="57.5481" fill="white" transform="translate(19.2712 0.242316)"></rect>
      </clipPath>
    </defs>
  </symbol>
  <symbol fill="none" xmlns="http://www.w3.org/2000/svg" viewBox="0 0 113 46" id="lyft">
    <g clip-path="url(#clip0_1579_2428)">
      <g clip-path="url(#clip1_1579_2428)">
        <path d="M24.2125 1.14448H33.8899V27.2442C33.8899 31.3836 35.7557 33.8473 37.2732 34.8727C35.6935 36.2609 30.9046 37.4865 27.2973 34.5226C25.1827 32.7718 24.2125 29.8579 24.2125 27.1441V1.14448ZM84.6525 22.8421V20.0908H87.613V10.4863H84.3664C83.1101 4.69614 77.9978 0.394133 71.8903 0.394133C64.85 0.394133 59.1157 6.14682 59.1157 13.2376V35.6481C61.1059 35.9357 63.519 35.6106 65.5466 33.8973C67.6736 32.1465 68.6314 29.2451 68.6314 26.5188V25.6809H73.4576V16.0765H68.6314V13.1626C68.6314 8.83558 75.1244 8.83558 75.1244 13.1626V22.8046C75.1244 29.8829 80.8463 35.6481 87.899 35.6481V26.0811C86.0954 26.0811 84.6525 24.618 84.6525 22.8421ZM48.0452 10.4613V24.5929C48.0452 26.5188 45.0848 26.5188 45.0848 24.5929V10.4613H35.5318V27.0566C35.5318 30.033 36.5269 33.8097 41.1292 35.0478C45.7316 36.2734 48.3686 33.7222 48.3686 33.7222C48.1074 35.398 46.565 36.6361 44.0275 36.8862C42.0995 37.0863 39.649 36.436 38.43 35.9107V44.7023C41.5522 45.6403 44.836 45.9279 48.0825 45.2901C53.9412 44.1521 57.6355 39.2373 57.6355 32.6842V10.3988H48.0452V10.4613Z" fill="#737373"></path>
      </g>
    </g>
    <defs>
      <clipPath id="clip0_1579_2428">
        <rect width="112.027" height="45.2712" fill="white" transform="translate(0.0423126 0.380783)"></rect>
      </clipPath>
      <clipPath id="clip1_1579_2428">
        <rect width="63.6865" height="45.2712" fill="white" transform="translate(24.2125 0.380808)"></rect>
      </clipPath>
    </defs>
  </symbol>
  <symbol fill="none" xmlns="http://www.w3.org/2000/svg" viewBox="0 0 119 28" id="hooli">
    <g clip-path="url(#clip0_1579_2425)">
      <g clip-path="url(#clip1_1579_2425)">
        <path d="M37.6518 25.4683L42.3814 25.5663C40.7513 25.0029 39.1707 24.317 37.6518 23.5086V25.4683ZM44.777 24.8192V25.4683L42.3814 25.5663C46.8887 27.0973 51.0132 27.3056 54.0757 26.4482C51.6183 26.4727 48.42 26.1297 44.777 24.8192ZM95.2715 10.7094C97.235 10.7094 98.8403 9.12937 98.8403 7.16968C98.8403 5.20998 97.2473 4.16889 95.2715 4.16889C93.308 4.16889 91.7027 5.22223 91.7027 7.16968C91.7027 9.11713 93.2957 10.7094 95.2715 10.7094ZM91.6903 25.4683H98.8403V11.9342H91.6903V25.4683ZM82.5892 25.4683H89.7392V1.5478L82.5892 4.89153V25.4683ZM78.7611 10.8441C76.5136 8.61495 72.5373 8.74968 72.5373 8.74968C72.5373 8.74968 68.5486 8.61495 66.3134 10.8441C64.066 13.0733 64.2388 14.9962 64.2388 17.2866C64.2388 19.577 64.066 21.4877 66.3134 23.7169C68.5609 25.946 72.5373 25.8113 72.5373 25.8113C72.5373 25.8113 76.526 25.946 78.7611 23.7169C81.0086 21.4877 80.8357 19.577 80.8357 17.2866C80.8234 14.984 80.9962 13.061 78.7611 10.8441ZM73.8463 19.6505C73.8463 20.0914 73.624 21.1815 72.5249 21.1815C71.4259 21.1815 71.2036 20.0914 71.2036 19.6505V14.7023C71.2036 13.6367 72.1051 13.3672 72.5249 13.3672C72.9448 13.3672 73.8463 13.6244 73.8463 14.7023V19.6505ZM60.7318 10.8441C58.4843 8.61495 54.5079 8.74968 54.5079 8.74968C54.5079 8.74968 50.5316 8.61495 48.2841 10.8441C48.0495 11.0768 47.8272 11.3218 47.6296 11.579C42.9124 7.95356 38.6767 5.88363 35.0214 4.0954V1.56004L32.243 2.85834C25.5252 0.151511 21.2525 0.629188 20.2275 2.87059C20.2275 2.87059 17.1527 6.88797 27.8591 16.4415V25.4683H35.0091V21.9654C34.2064 21.451 33.4037 20.8998 32.6134 20.2996C30.7858 18.9279 29.2298 17.6541 27.8715 16.4537V12.6568C29.4892 14.4573 31.6379 16.5027 34.4657 18.8176L35.0214 19.2586V15.6086C35.0214 14.7635 35.2314 13.3795 36.3551 13.3795C37.4789 13.3795 37.6641 14.2246 37.6641 15.2167V21.1815C39.8869 22.6758 42.2702 23.8883 44.7894 24.8069V13.306C44.7894 11.0156 43.1346 8.72519 39.7758 8.72519C37.8246 8.71294 36.0094 9.72953 35.0214 11.4075V4.7568C40.1956 7.31665 45.3821 10.4522 47.358 11.8974C46.0984 13.6857 46.2095 15.3392 46.2095 17.2499C46.2095 19.5403 46.0366 21.451 48.2841 23.6801C50.5316 25.9093 54.5079 25.7745 54.5079 25.7745C54.5079 25.7745 58.4966 25.9093 60.7318 23.6801C62.9793 21.451 62.794 19.5403 62.794 17.2499C62.794 14.984 62.9793 13.061 60.7318 10.8441ZM27.8591 4.89153V12.6446C21.8452 5.96936 23.0554 3.33602 23.5123 2.95633C25.1794 1.56004 28.1431 1.97648 31.465 3.21354L27.8591 4.89153ZM55.8293 19.6505C55.8293 20.0914 55.607 21.1815 54.5079 21.1815C53.4089 21.1815 53.1866 20.0914 53.1866 19.6505V14.7023C53.1866 13.6367 54.0881 13.3672 54.5079 13.3672C54.9278 13.3672 55.8293 13.6244 55.8293 14.7023V19.6505Z" fill="#737373"></path>
      </g>
    </g>
    <defs>
      <clipPath id="clip0_1579_2425">
        <rect width="117.398" height="26.0885" fill="white" transform="translate(0.625 0.97213)"></rect>
      </clipPath>
      <clipPath id="clip1_1579_2425">
        <rect width="79.0327" height="26.0885" fill="white" transform="translate(19.8077 0.97213)"></rect>
      </clipPath>
    </defs>
  </symbol>
  <symbol fill="none" xmlns="http://www.w3.org/2000/svg" viewBox="0 0 56 46" id="bookmark">
    <g clip-path="url(#clip0_1579_2345)">
      <path fill-rule="evenodd" clip-rule="evenodd" d="M11.5808 11.4309C11.5808 9.91918 12.179 8.46933 13.2438 7.40036C14.3087 6.33138 15.7529 5.73083 17.2589 5.73083H34.2931C35.799 5.73083 37.2432 6.33138 38.3081 7.40036C39.3729 8.46933 39.9712 9.91918 39.9712 11.4309V44.2065C39.971 44.4643 39.9013 44.7172 39.7693 44.9383C39.6373 45.1594 39.448 45.3404 39.2217 45.4621C38.9953 45.5838 38.7403 45.6415 38.4838 45.6292C38.2273 45.6169 37.979 45.535 37.7652 45.3922L25.776 37.3693L13.7867 45.3922C13.5729 45.535 13.3246 45.6169 13.0681 45.6292C12.8116 45.6415 12.5566 45.5838 12.3303 45.4621C12.1039 45.3404 11.9147 45.1594 11.7827 44.9383C11.6507 44.7172 11.5809 44.4643 11.5808 44.2065V11.4309ZM17.2589 8.58089C16.5059 8.58089 15.7838 8.88116 15.2513 9.41565C14.7189 9.95014 14.4198 10.6751 14.4198 11.4309V41.5446L24.9896 34.4708C25.2225 34.3151 25.4961 34.2321 25.776 34.2321C26.0558 34.2321 26.3294 34.3151 26.5624 34.4708L37.1321 41.5446V11.4309C37.1321 10.6751 36.833 9.95014 36.3006 9.41565C35.7682 8.88116 35.046 8.58089 34.2931 8.58089H17.2589Z" fill="#23A6F0"></path>
      <path fill-rule="evenodd" clip-rule="evenodd" d="M17.7192 3.15492H39.6656C40.4183 3.15492 41.1403 3.44942 41.6726 3.97363C42.2049 4.49784 42.5039 5.20882 42.5039 5.95017V38.8446L43.1369 39.2583C43.3506 39.3983 43.5989 39.4787 43.8553 39.4908C44.1117 39.5029 44.3667 39.4462 44.593 39.3269C44.8193 39.2076 45.0085 39.03 45.1405 38.8132C45.2724 38.5963 45.3422 38.3483 45.3423 38.0955V5.95017C45.3423 4.46748 44.7442 3.04552 43.6796 1.9971C42.615 0.948676 41.1711 0.35968 39.6656 0.35968L22.6353 0.35968C21.6389 0.359705 20.66 0.618032 19.797 1.1087C18.9341 1.59937 18.2175 2.30508 17.7192 3.15492Z" fill="#23A6F0"></path>
    </g>
    <defs>
      <clipPath id="clip0_1579_2345">
        <rect width="55.2462" height="45.4969" fill="white" transform="translate(0.454811 0.35968)"></rect>
      </clipPath>
    </defs>
  </symbol>
  <symbol fill="none" xmlns="http://www.w3.org/2000/svg" viewBox="0 0 56 46" id="book">
    <g clip-path="url(#clip0_1579_2338)">
      <path fill-rule="evenodd" clip-rule="evenodd" d="M0.375031 7.59432C0.375031 5.87909 1.06218 4.2341 2.28531 3.02124C3.50845 1.80839 5.16737 1.12701 6.89715 1.12701H50.9214C51.3539 1.12701 51.7686 1.29736 52.0744 1.60057C52.3802 1.90379 52.552 2.31503 52.552 2.74384C52.552 3.17265 52.3802 3.5839 52.0744 3.88711C51.7686 4.19032 51.3539 4.36067 50.9214 4.36067H49.2909V10.828C50.1558 10.828 50.9852 11.1687 51.5968 11.7751C52.2084 12.3815 52.552 13.204 52.552 14.0616V41.5477C52.552 42.8341 52.0366 44.0679 51.1192 44.9775C50.2019 45.8871 48.9577 46.3982 47.6604 46.3982H8.52767C6.36546 46.3982 4.2918 45.5464 2.76288 44.0304C1.23397 42.5143 0.375031 40.4581 0.375031 38.314L0.375031 7.59432ZM3.63609 13.195V38.314C3.63609 39.6005 4.15145 40.8342 5.0688 41.7438C5.98615 42.6535 7.23035 43.1645 8.52767 43.1645H47.6604C48.0928 43.1645 48.5075 42.9942 48.8133 42.691C49.1191 42.3877 49.2909 41.9765 49.2909 41.5477V14.0616H6.89715C5.75206 14.0631 4.62696 13.7641 3.63609 13.195V13.195ZM3.63609 7.59432C3.63609 8.45194 3.97966 9.27443 4.59123 9.88086C5.2028 10.4873 6.03226 10.828 6.89715 10.828H46.0298V4.36067H6.89715C6.03226 4.36067 5.2028 4.70136 4.59123 5.30778C3.97966 5.91421 3.63609 6.7367 3.63609 7.59432V7.59432Z" fill="#23A6F0"></path>
    </g>
    <defs>
      <clipPath id="clip0_1579_2338">
        <rect width="55.2462" height="45.4969" fill="white" transform="translate(0.375031 0.35968)"></rect>
      </clipPath>
    </defs>
  </symbol>
  <symbol fill="none" xmlns="http://www.w3.org/2000/svg" viewBox="0 0 10 9" id="arrow">
    <path fill-rule="evenodd" clip-rule="evenodd" d="M0.536499 4.5288C0.536499 4.38347 0.597123 4.24409 0.705035 4.14132C0.812946 4.03855 0.959306 3.98082 1.11192 3.98082H7.77869L5.30785 1.6289C5.1998 1.526 5.1391 1.38645 5.1391 1.24093C5.1391 1.09541 5.1998 0.955858 5.30785 0.852963C5.4159 0.750067 5.56244 0.692261 5.71525 0.692261C5.86805 0.692261 6.01459 0.750067 6.12264 0.852963L9.57514 4.14083C9.62873 4.19173 9.67124 4.2522 9.70025 4.31878C9.72926 4.38535 9.74419 4.45672 9.74419 4.5288C9.74419 4.60088 9.72926 4.67225 9.70025 4.73882C9.67124 4.8054 9.62873 4.86587 9.57514 4.91677L6.12264 8.20464C6.01459 8.30753 5.86805 8.36534 5.71525 8.36534C5.56244 8.36534 5.4159 8.30753 5.30785 8.20464C5.1998 8.10174 5.1391 7.96218 5.1391 7.81667C5.1391 7.67115 5.1998 7.53159 5.30785 7.4287L7.77869 5.07678H1.11192C0.959306 5.07678 0.812946 5.01904 0.705035 4.91628C0.597123 4.81351 0.536499 4.67413 0.536499 4.5288Z" fill="white"></path>
  </symbol>
  <symbol fill="none" xmlns="http://www.w3.org/2000/svg" viewBox="0 0 38 32" id="person">
    <g clip-path="url(#clip0_1579_2317)">
      <path fill-rule="evenodd" clip-rule="evenodd" d="M36.0841 30.5711C36.0841 30.5711 38.45 30.5711 38.45 28.1839C38.45 25.7967 36.0841 18.6352 26.6207 18.6352C17.1572 18.6352 14.7914 25.7967 14.7914 28.1839C14.7914 30.5711 17.1572 30.5711 17.1572 30.5711H36.0841ZM17.2093 28.1839H36.0321C36.0432 28.1826 36.0542 28.181 36.0652 28.1791L36.0841 28.1744C36.0794 27.5441 35.689 25.7156 34.2861 24.0684C32.9801 22.5239 30.6852 21.0224 26.6207 21.0224C22.5585 21.0224 20.2636 22.5263 18.9553 24.0684C17.5523 25.7156 17.1596 27.5465 17.1572 28.1744C17.1745 28.1777 17.1919 28.1809 17.2093 28.1839ZM26.6207 13.8608C27.8756 13.8608 29.0791 13.3578 29.9665 12.4624C30.8539 11.5671 31.3524 10.3527 31.3524 9.08646C31.3524 7.82023 30.8539 6.60585 29.9665 5.71048C29.0791 4.81512 27.8756 4.31211 26.6207 4.31211C25.3657 4.31211 24.1622 4.81512 23.2748 5.71048C22.3875 6.60585 21.8889 7.82023 21.8889 9.08646C21.8889 10.3527 22.3875 11.5671 23.2748 12.4624C24.1622 13.3578 25.3657 13.8608 26.6207 13.8608ZM33.7183 9.08646C33.7183 10.0269 33.5347 10.9582 33.178 11.8271C32.8213 12.6959 32.2985 13.4854 31.6394 14.1504C30.9804 14.8154 30.1979 15.343 29.3368 15.7029C28.4757 16.0628 27.5527 16.248 26.6207 16.248C25.6886 16.248 24.7657 16.0628 23.9045 15.7029C23.0434 15.343 22.261 14.8154 21.6019 14.1504C20.9428 13.4854 20.42 12.6959 20.0634 11.8271C19.7067 10.9582 19.5231 10.0269 19.5231 9.08646C19.5231 7.18711 20.2709 5.36554 21.6019 4.02249C22.933 2.67944 24.7383 1.92493 26.6207 1.92493C28.5031 1.92493 30.3084 2.67944 31.6394 4.02249C32.9705 5.36554 33.7183 7.18711 33.7183 9.08646ZM17.0058 19.3036C16.0594 19.0029 15.0839 18.8052 14.0958 18.714C13.5406 18.6607 12.9832 18.6344 12.4255 18.6352C2.96203 18.6352 0.596161 25.7967 0.596161 28.1839C0.596161 29.7761 1.38399 30.5711 2.96203 30.5711H12.9365C12.5858 29.8258 12.4109 29.0088 12.4255 28.1839C12.4255 25.7728 13.3174 23.3093 15.0043 21.2515C15.5792 20.5497 16.2487 19.8932 17.0058 19.3036ZM12.2362 21.0224C8.28995 21.0701 6.04948 22.5502 4.76008 24.0684C3.34766 25.7251 2.96203 27.5608 2.96203 28.1839H10.0596C10.0596 25.6893 10.8238 23.2042 12.2362 21.0224ZM4.14496 10.2801C4.14496 8.3807 4.89274 6.55913 6.2238 5.21608C7.55485 3.87303 9.36016 3.11852 11.2426 3.11852C13.125 3.11852 14.9303 3.87303 16.2613 5.21608C17.5924 6.55913 18.3402 8.3807 18.3402 10.2801C18.3402 12.1794 17.5924 14.001 16.2613 15.344C14.9303 16.6871 13.125 17.4416 11.2426 17.4416C9.36016 17.4416 7.55485 16.6871 6.2238 15.344C4.89274 14.001 4.14496 12.1794 4.14496 10.2801ZM11.2426 5.5057C9.98762 5.5057 8.78409 6.00871 7.89672 6.90407C7.00934 7.79944 6.51082 9.01382 6.51082 10.2801C6.51082 11.5463 7.00934 12.7607 7.89672 13.656C8.78409 14.5514 9.98762 15.0544 11.2426 15.0544C12.4975 15.0544 13.701 14.5514 14.5884 13.656C15.4758 12.7607 15.9743 11.5463 15.9743 10.2801C15.9743 9.01382 15.4758 7.79944 14.5884 6.90407C13.701 6.00871 12.4975 5.5057 11.2426 5.5057Z" fill="#23A6F0"></path>
    </g>
    <defs>
      <clipPath id="clip0_1579_2317">
        <rect width="36.8308" height="30.3313" fill="white" transform="translate(0.851929 0.901855)"></rect>
      </clipPath>
    </defs>
  </symbol>
  <symbol fill="none" xmlns="http://www.w3.org/2000/svg" viewBox="0 0 20 12" id="menu">
    <path d="M1.06549 0.528809H18.6039V2.28265H1.06549V0.528809ZM5.45011 4.91342H18.6039V6.66727H5.45011V4.91342ZM10.9309 9.29804H18.6039V11.0519H10.9309V9.29804Z" fill="#737373"></path>
  </symbol>
  <symbol fill="none" xmlns="http://www.w3.org/2000/svg" viewBox="0 0 20 18" id="cart">
    <g clip-path="url(#clip0_1579_1825)">
      <path d="M6.79624 17.6474C7.47427 17.6474 8.02393 17.0977 8.02393 16.4197C8.02393 15.7417 7.47427 15.192 6.79624 15.192C6.1182 15.192 5.56854 15.7417 5.56854 16.4197C5.56854 17.0977 6.1182 17.6474 6.79624 17.6474Z" fill="#737373"></path>
      <path d="M15.39 17.6474C16.0681 17.6474 16.6177 17.0977 16.6177 16.4197C16.6177 15.7417 16.0681 15.192 15.39 15.192C14.712 15.192 14.1624 15.7417 14.1624 16.4197C14.1624 17.0977 14.712 17.6474 15.39 17.6474Z" fill="#737373"></path>
      <path d="M17.8454 3.52895H4.2303L3.72695 0.950796C3.69825 0.810056 3.6211 0.683836 3.50894 0.594108C3.39678 0.504379 3.25671 0.456824 3.1131 0.45972H0.657715V1.68741H2.60975L4.95464 13.4733C4.98334 13.614 5.06048 13.7402 5.17264 13.8299C5.2848 13.9197 5.42488 13.9672 5.56848 13.9643H16.6177V12.7366H6.07184L5.56848 10.2813H16.6177C16.7596 10.2847 16.8983 10.2389 17.0102 10.1516C17.1222 10.0643 17.2004 9.94093 17.2316 9.80246L18.4593 4.27784C18.4798 4.18676 18.4793 4.09219 18.4579 4.00132C18.4364 3.91046 18.3944 3.82569 18.3352 3.75348C18.276 3.68126 18.2012 3.6235 18.1163 3.5846C18.0314 3.54569 17.9388 3.52666 17.8454 3.52895ZM16.1266 9.05357H5.33522L4.47584 4.75664H17.0781L16.1266 9.05357Z" fill="#737373"></path>
    </g>
    <defs>
      <clipPath id="clip0_1579_1825">
        <rect width="18.4154" height="17.1878" fill="white" transform="translate(0.657715 0.459595)"></rect>
      </clipPath>
    </defs>
  </symbol>
  <symbol fill="none" xmlns="http://www.w3.org/2000/svg" viewBox="0 0 20 20" id="magnify">
    <g clip-path="url(#clip0_1579_1823)">
      <path fill-rule="evenodd" clip-rule="evenodd" d="M14.017 12.5687L18.9705 17.5222C19.1446 17.6965 19.2424 17.9327 19.2423 18.179C19.2422 18.4253 19.1443 18.6615 18.97 18.8356C18.7958 19.0098 18.5596 19.1075 18.3132 19.1074C18.0669 19.1073 17.8307 19.0094 17.6566 18.8352L12.7031 13.8817C11.2223 15.0286 9.36022 15.5683 7.49561 15.3911C5.631 15.2138 3.90395 14.3329 2.6658 12.9274C1.42766 11.522 0.771417 9.69772 0.830584 7.82564C0.889751 5.95356 1.65988 4.17433 2.9843 2.8499C4.30873 1.52548 6.08796 0.755352 7.96004 0.696184C9.83212 0.637017 11.6564 1.29326 13.0618 2.5314C14.4673 3.76955 15.3482 5.4966 15.5255 7.36121C15.7027 9.22582 15.163 11.0879 14.0161 12.5687H14.017ZM8.1934 13.5824C9.65855 13.5824 11.0637 13.0004 12.0997 11.9644C13.1357 10.9284 13.7178 9.52323 13.7178 8.05808C13.7178 6.59293 13.1357 5.18779 12.0997 4.15177C11.0637 3.11575 9.65855 2.53372 8.1934 2.53372C6.72825 2.53372 5.32311 3.11575 4.28709 4.15177C3.25107 5.18779 2.66904 6.59293 2.66904 8.05808C2.66904 9.52323 3.25107 10.9284 4.28709 11.9644C5.32311 13.0004 6.72825 13.5824 8.1934 13.5824Z" fill="#737373"></path>
    </g>
    <defs>
      <clipPath id="clip0_1579_1823">
        <rect width="18.4154" height="18.4152" fill="white" transform="translate(0.826904 0.692261)"></rect>
      </clipPath>
    </defs>
  </symbol>
</svg>