<svg width="37" height="30" viewBox="0 0 37 30" fill="none" xmlns="http://www.w3.org/2000/svg">
<path fill-rule="evenodd" clip-rule="evenodd" d="M35.2438 29.5711C35.2438 29.5711 37.6096 29.5711 37.6096 27.1839C37.6096 24.7967 35.2438 17.6352 25.7803 17.6352C16.3169 17.6352 13.951 24.7967 13.951 27.1839C13.951 29.5711 16.3169 29.5711 16.3169 29.5711H35.2438ZM16.3689 27.1839H35.1917C35.2028 27.1826 35.2139 27.181 35.2248 27.1791L35.2438 27.1744C35.239 26.5441 34.8487 24.7156 33.4457 23.0684C32.1398 21.5239 29.8449 20.0224 25.7803 20.0224C21.7181 20.0224 19.4232 21.5263 18.1149 23.0684C16.712 24.7156 16.3192 26.5465 16.3169 27.1744C16.3342 27.1777 16.3515 27.1809 16.3689 27.1839ZM25.7803 12.8608C27.0352 12.8608 28.2388 12.3578 29.1262 11.4624C30.0135 10.5671 30.512 9.3527 30.512 8.08646C30.512 6.82023 30.0135 5.60585 29.1262 4.71048C28.2388 3.81512 27.0352 3.31211 25.7803 3.31211C24.5254 3.31211 23.3218 3.81512 22.4345 4.71048C21.5471 5.60585 21.0486 6.82023 21.0486 8.08646C21.0486 9.3527 21.5471 10.5671 22.4345 11.4624C23.3218 12.3578 24.5254 12.8608 25.7803 12.8608ZM32.8779 8.08646C32.8779 9.02693 32.6943 9.95819 32.3376 10.8271C31.981 11.6959 31.4581 12.4854 30.7991 13.1504C30.14 13.8154 29.3576 14.343 28.4964 14.7029C27.6353 15.0628 26.7124 15.248 25.7803 15.248C24.8482 15.248 23.9253 15.0628 23.0642 14.7029C22.2031 14.343 21.4206 13.8154 20.7616 13.1504C20.1025 12.4854 19.5797 11.6959 19.223 10.8271C18.8663 9.95819 18.6827 9.02693 18.6827 8.08646C18.6827 6.18711 19.4305 4.36554 20.7616 3.02249C22.0926 1.67944 23.8979 0.924927 25.7803 0.924927C27.6627 0.924927 29.468 1.67944 30.7991 3.02249C32.1301 4.36554 32.8779 6.18711 32.8779 8.08646ZM16.1654 18.3036C15.219 18.0029 14.2435 17.8052 13.2554 17.714C12.7002 17.6607 12.1428 17.6344 11.5851 17.6352C2.12166 17.6352 -0.244202 24.7967 -0.244202 27.1839C-0.244202 28.7761 0.543631 29.5711 2.12166 29.5711H12.0962C11.7454 28.8258 11.5705 28.0088 11.5851 27.1839C11.5851 24.7728 12.4771 22.3093 14.1639 20.2515C14.7388 19.5497 15.4084 18.8932 16.1654 18.3036ZM11.3959 20.0224C7.44959 20.0701 5.20912 21.5502 3.91972 23.0684C2.5073 24.7251 2.12166 26.5608 2.12166 27.1839H9.21926C9.21926 24.6893 9.98343 22.2042 11.3959 20.0224ZM3.3046 9.28005C3.3046 7.3807 4.05238 5.55913 5.38343 4.21608C6.71449 2.87303 8.51979 2.11852 10.4022 2.11852C12.2846 2.11852 14.0899 2.87303 15.4209 4.21608C16.752 5.55913 17.4998 7.3807 17.4998 9.28005C17.4998 11.1794 16.752 13.001 15.4209 14.344C14.0899 15.6871 12.2846 16.4416 10.4022 16.4416C8.51979 16.4416 6.71449 15.6871 5.38343 14.344C4.05238 13.001 3.3046 11.1794 3.3046 9.28005ZM10.4022 4.5057C9.14726 4.5057 7.94372 5.00871 7.05635 5.90407C6.16898 6.79944 5.67046 8.01382 5.67046 9.28005C5.67046 10.5463 6.16898 11.7607 7.05635 12.656C7.94372 13.5514 9.14726 14.0544 10.4022 14.0544C11.6571 14.0544 12.8607 13.5514 13.748 12.656C14.6354 11.7607 15.1339 10.5463 15.1339 9.28005C15.1339 8.01382 14.6354 6.79944 13.748 5.90407C12.8607 5.00871 11.6571 4.5057 10.4022 4.5057Z" fill="white"/>
</svg>
