<svg width="15" height="15" viewBox="0 0 15 15" fill="none" xmlns="http://www.w3.org/2000/svg">
<path d="M14.7261 5.6044C14.6818 5.4741 14.6004 5.35961 14.4918 5.27506C14.3833 5.19052 14.2523 5.13961 14.1152 5.12863L10.1028 4.80981L8.36651 0.966354C8.31121 0.842564 8.22127 0.737423 8.10754 0.663619C7.99381 0.589816 7.86115 0.550505 7.72557 0.55043C7.58999 0.550356 7.45729 0.589521 7.34348 0.6632C7.22967 0.736878 7.13961 0.841921 7.08418 0.96565L5.3479 4.80981L1.33554 5.12863C1.20073 5.13931 1.07185 5.1886 0.96432 5.27061C0.856791 5.35262 0.775165 5.46387 0.729207 5.59105C0.683249 5.71823 0.674905 5.85596 0.705173 5.98776C0.735442 6.11956 0.803041 6.23985 0.899883 6.33424L3.865 9.22475L2.81633 13.7657C2.78449 13.9031 2.7947 14.047 2.84562 14.1786C2.89655 14.3101 2.98585 14.4234 3.10194 14.5036C3.21802 14.5838 3.35553 14.6272 3.49662 14.6283C3.6377 14.6294 3.77586 14.588 3.89315 14.5096L7.72534 11.9548L11.5575 14.5096C11.6774 14.5892 11.8188 14.6302 11.9627 14.627C12.1065 14.6239 12.246 14.5767 12.3623 14.4919C12.4785 14.4072 12.5661 14.2888 12.6131 14.1528C12.6601 14.0168 12.6643 13.8697 12.6252 13.7312L11.338 9.22686L14.5304 6.35395C14.7394 6.16533 14.8161 5.87114 14.7261 5.6044Z" fill="#F3CD03"/>
</svg>
