<svg width="15" height="15" viewBox="0 0 15 15" fill="none" xmlns="http://www.w3.org/2000/svg">
<path d="M3.59446 9.22486L2.5458 13.7658C2.51332 13.9033 2.52307 14.0474 2.57377 14.1793C2.62446 14.3111 2.71375 14.4247 2.82997 14.505C2.94619 14.5853 3.08393 14.6288 3.22521 14.6296C3.36649 14.6304 3.50474 14.5887 3.62191 14.5097L7.4541 11.9549L11.2863 14.5097C11.4062 14.5893 11.5476 14.6303 11.6914 14.6271C11.8353 14.624 11.9747 14.5768 12.091 14.4921C12.2073 14.4073 12.2948 14.2889 12.3418 14.1529C12.3888 14.0169 12.3931 13.8698 12.354 13.7313L11.0667 9.22697L14.2592 6.35405C14.3614 6.26199 14.4344 6.14197 14.4692 6.00885C14.5039 5.87572 14.4989 5.73533 14.4547 5.60503C14.4106 5.47473 14.3291 5.36023 14.2206 5.27571C14.112 5.19118 13.9811 5.14033 13.8439 5.12944L9.83154 4.80992L8.09527 0.966459C8.0399 0.8427 7.9499 0.737608 7.83613 0.663867C7.72236 0.590126 7.58968 0.550888 7.4541 0.550888C7.31852 0.550888 7.18584 0.590126 7.07207 0.663867C6.9583 0.737608 6.8683 0.8427 6.81294 0.966459L5.07666 4.80992L1.0643 5.12874C0.929486 5.13942 0.800608 5.18871 0.693079 5.27072C0.585551 5.35272 0.503925 5.46397 0.457966 5.59116C0.412008 5.71834 0.403664 5.85607 0.433933 5.98787C0.464201 6.11967 0.531801 6.23996 0.628643 6.33435L3.59446 9.22486ZM5.6024 6.18022C5.72803 6.17032 5.84868 6.12681 5.9517 6.05425C6.05473 5.98168 6.13633 5.88274 6.18797 5.76779L7.4541 2.96596L8.72024 5.76779C8.77187 5.88274 8.85348 5.98168 8.9565 6.05425C9.05953 6.12681 9.18018 6.17032 9.3058 6.18022L12.1013 6.40191L9.79917 8.4739C9.59929 8.65408 9.51976 8.93137 9.59295 9.19037L10.4748 12.2765L7.84542 10.5234C7.73001 10.4459 7.59415 10.4045 7.45516 10.4045C7.31616 10.4045 7.18031 10.4459 7.0649 10.5234L4.31726 12.3554L5.05625 9.15589C5.08335 9.03821 5.07971 8.91555 5.04569 8.79968C5.01167 8.68382 4.94842 8.57866 4.86201 8.49431L2.72386 6.40965L5.6024 6.18022Z" fill="#F3CD03"/>
</svg>
